{
  "title": "Westworld S01E02 Chestnut 1080p WEBRip HEVC DD5.1 x265",
  "uid": 15977264,
  "size": 1010597322,
  "categoryP": "video",
  "categoryS": "hd___tv_shows",
  "magnet": "?xt=urn:btih:0f57314adafa3d498936d659988ce2dea9f0df1a&amp;dn=Westworld+S01E02+Chestnut+1080p+WEBRip+HEVC+DD5.1+x265&amp;tr=udp%3A%2F%2Ftracker.leechers-paradise.org%3A6969&amp;tr=udp%3A%2F%2Fzer0day.ch%3A1337&amp;tr=udp%3A%2F%2Fopen.demonii.com%3A1337&amp;tr=udp%3A%2F%2Ftracker.coppersurfer.tk%3A6969&amp;tr=udp%3A%2F%2Fexodus.desync.com%3A6969",
  "seeders": 41,
  "leechers": 7,
  "uploader": "nayhtut",
  "files": 1,
  "time": 1475857073,
  "description": "Source: Westworld S01E02 Chestnut 1080p HBO WEBRip DD5.1 H264-monkee (1.63 GB)\r\n\r\n\r\nComplete name: Westworld.S01E02.Chestnut.1080p.WEBRip.HEVC.DD5.1.x265.mkv\r\nFormat                                   : Matroska\r\nFormat version                           : Version 4 / Version 2\r\nFile size                                : 964 MiB\r\nDuration                                 : 58mn 36s\r\nOverall bit rate                         : 2 299 Kbps\r\nWriting application                      : Lavf57.25.100\r\nWriting library                          : Lavf57.25.100\r\n\r\nVideo\r\n\r\nID                                       : 1\r\nFormat                                   : V_MPEGH/ISO/HEVC\r\nCodec ID                                 : V_MPEGH/ISO/HEVC\r\nDuration                                 : 58mn 36s\r\nBit rate                                 : 1 869 Kbps\r\nWidth                                    : 1 920 pixels\r\nHeight                                   : 1 080 pixels\r\nDisplay aspect ratio                     : 16:9\r\nFrame rate                               : 25.000 fps\r\nBits/(Pixel*Frame)                       : 0.036\r\nStream size                              : 784 MiB (81%)\r\nWriting library                          : Lavc57.48.101 libx265\r\nDefault                                  : Yes\r\nForced                                   : No\r\nDURATION                                 : 00:58:36.564000000\r\n\r\nAudio\r\n\r\nID                                       : 2\r\nFormat                                   : AC-3\r\nFormat/Info                              : Audio Coding 3\r\nMode extension                           : CM (complete main)\r\nFormat settings, Endianness              : Big\r\nCodec ID                                 : A_AC3\r\nDuration                                 : 58mn 36s\r\nBit rate mode                            : Constant\r\nBit rate                                 : 384 Kbps\r\nChannel(s)                               : 6 channels\r\nChannel positions                        : Front: L C R, Side: L R, LFE\r\nSampling rate                            : 48.0 KHz\r\nBit depth                                : 16 bits\r\nCompression mode                         : Lossy\r\nStream size                              : 161 MiB (17%)\r\nWriting library                          : Lavc57.24.102 ac3\r\nDefault                                  : Yes\r\nForced                                   : No\r\nDURATION                                 : 00:58:36.575000000\r\n\r\nText\r\n\r\nID                                       : 3\r\nFormat                                   : ASS\r\nCodec ID                                 : S_TEXT/ASS\r\nCompression mode                         : Lossless\r\nLanguage                                 : English",
  "parsed": {
    "xt": "urn:btih:0f57314adafa3d498936d659988ce2dea9f0df1a",
    "dn": "Westworld S01E02 Chestnut 1080p WEBRip HEVC DD5.1 x265",
    "tr": [
      "udp://exodus.desync.com:6969",
      "udp://open.demonii.com:1337",
      "udp://tracker.coppersurfer.tk:6969",
      "udp://tracker.leechers-paradise.org:6969",
      "udp://zer0day.ch:1337"
    ],
    "infoHash": "0f57314adafa3d498936d659988ce2dea9f0df1a",
    "infoHashBuffer": {
      "type": "Buffer",
      "data": [
        15,
        87,
        49,
        74,
        218,
        250,
        61,
        73,
        137,
        54,
        214,
        89,
        152,
        140,
        226,
        222,
        169,
        240,
        223,
        26
      ]
    },
    "name": "Westworld S01E02 Chestnut 1080p WEBRip HEVC DD5.1 x265",
    "announce": [
      "udp://exodus.desync.com:6969",
      "udp://open.demonii.com:1337",
      "udp://tracker.coppersurfer.tk:6969",
      "udp://tracker.leechers-paradise.org:6969",
      "udp://zer0day.ch:1337"
    ],
    "urlList": []
  },
  "previous": 69,
  "peers": 65,
  "last_updated": "2016-12-26T16:22:24.796Z"
}